<svg width="24" height="24" viewBox="0 0 24 24" fill="none" xmlns="http://www.w3.org/2000/svg">
<path d="M22.5885 7.35525C22.6265 7.23938 22.6473 7.11581 22.6473 6.98747V1.188C22.6473 0.532922 22.1124 0 21.455 0H14.1684C13.511 0 12.9761 0.532922 12.9761 1.188V1.60528C11.4043 1.57378 9.77048 1.89998 8.32603 2.53345C7.00359 3.11063 5.82112 3.92709 4.80825 4.95994H3.5625C3.36834 4.95994 3.21094 5.11734 3.21094 5.3115C3.21094 5.50566 3.36834 5.66306 3.5625 5.66306H8.47884C8.74856 5.66306 8.96803 5.88061 8.96803 6.14794V11.9474C8.96803 12.2147 8.74856 12.4323 8.47884 12.4323H7.80623C7.30331 12.4323 6.89414 12.8401 6.89414 13.3415V14.1604L4.73536 12.6047C4.57889 12.4919 4.39411 12.4323 4.20103 12.4323H1.19231C0.922594 12.4323 0.703125 12.2148 0.703125 11.9474V6.14798C0.703125 5.88061 0.922594 5.66311 1.19231 5.66311H1.92188C2.11603 5.66311 2.27344 5.5057 2.27344 5.31155C2.27344 5.11739 2.11603 4.95998 1.92188 4.95998H1.19231C0.534891 4.95998 0 5.49291 0 6.14798V11.9474C0 12.6025 0.534891 13.1355 1.19231 13.1355H1.60861C1.69195 16.0015 2.84695 18.6839 4.88316 20.7201C6.99825 22.8352 9.81042 24 12.8016 24C14.3568 24 15.8622 23.6872 17.2762 23.0702C18.6419 22.4743 19.8588 21.624 20.8934 20.5429C21.0276 20.4026 21.0227 20.1801 20.8824 20.0459C20.7421 19.9116 20.5196 19.9165 20.3854 20.0568C19.6129 20.864 18.7365 21.5304 17.7856 22.0452C17.3388 21.4505 16.6831 20.735 16.2448 20.0492L16.3286 19.9888C16.3646 19.9628 16.4072 19.9492 16.4518 19.9492H19.4605C20.118 19.9492 20.6528 19.4162 20.6528 18.7612V12.9617C20.6528 12.8832 20.645 12.8066 20.6303 12.7323C21.2345 12.009 21.5655 11.0871 21.5655 10.1142C21.5608 9.42239 21.3653 8.75395 21.0064 8.17547H21.4549C21.7017 8.17547 21.9312 8.10037 22.1216 7.97194C22.8916 9.45661 23.2969 11.1163 23.2969 12.8016C23.2969 14.9718 22.6403 17.0542 21.3983 18.8239C21.2867 18.9828 21.3251 19.2021 21.484 19.3136C21.5889 19.389 21.8145 19.4192 21.9737 19.2278C23.2993 17.3392 24 15.1171 24 12.8016C24 10.892 23.5124 9.01284 22.5885 7.35525V7.35525ZM8.47884 4.95998H5.82516C6.65077 4.22241 7.57336 3.6293 8.56387 3.19219L8.79891 3.46336C9.19345 3.98133 9.43973 4.72491 9.35897 5.34745C9.14081 5.10952 8.82703 4.95998 8.47884 4.95998V4.95998ZM16.6668 21.7701C16.8349 21.9748 16.9965 22.1719 17.1449 22.3643C15.801 22.9755 14.329 23.2969 12.8016 23.2969C8.86786 23.2969 5.43333 21.1211 3.63647 17.9101C4.13213 17.5013 4.77061 17.0045 5.2807 17.0637C5.48887 17.0879 5.67319 17.2095 5.84414 17.4357C6.27192 18.0012 6.9938 18.1114 7.49953 18.1451C8.25469 18.0984 8.92763 17.7127 9.34777 17.0908C9.45759 16.9306 9.41686 16.7118 9.25673 16.602C9.09661 16.4921 8.8778 16.533 8.76797 16.693C8.46586 17.1335 8.06686 17.3718 7.51425 17.4413C6.94031 17.3992 6.59742 17.2661 6.40495 17.0116C6.11616 16.6296 5.7652 16.4121 5.3618 16.3652C4.61719 16.2789 3.88486 16.8021 3.30703 17.2711C2.71059 16.0092 2.35852 14.6102 2.31216 13.1354H4.20098C4.24561 13.1354 4.28822 13.1491 4.32422 13.1751L6.59545 14.8118C6.7057 14.8913 6.83489 14.9317 6.96497 14.9317C7.06341 14.9317 7.16231 14.9085 7.25386 14.8617C7.46569 14.7533 7.59722 14.5384 7.59722 14.3009V13.3415C7.59722 13.2278 7.69097 13.1354 7.80619 13.1354H8.4788C9.13622 13.1354 9.67111 12.6024 9.67111 11.9474V10.447C10.0896 10.7051 10.7523 10.9342 11.2919 10.9195C11.8753 10.9195 12.4559 10.7455 12.9556 10.4023C13.6079 9.95433 14.0569 9.25514 14.1877 8.484C14.2047 8.38388 14.2196 8.28075 14.2323 8.17542H14.841C14.9562 8.17542 15.0499 8.26786 15.0499 8.38148V9.34088C15.0499 9.57839 15.1815 9.79331 15.3933 9.90173C15.572 9.98536 15.7897 10.0137 16.0516 9.85191L17.4989 8.80898C17.4429 9.35344 17.2965 9.9263 16.6297 10.5918C16.3165 10.9106 16.1367 11.3364 16.1272 11.7736H12.174C11.5165 11.7736 10.9816 12.3066 10.9816 12.9617V13.1137C10.329 13.3625 9.80639 13.9117 9.5722 14.6034C9.52116 14.7543 9.44123 15.0112 9.36698 15.2566C9.31022 15.4423 9.4147 15.6388 9.60037 15.6956C9.74194 15.7353 9.94238 15.6863 10.0394 15.4622C10.0892 15.2992 10.1575 15.0718 10.2383 14.8289C10.3736 14.4289 10.6414 14.0971 10.9817 13.8925V18.7611C10.9817 19.4161 11.5166 19.9491 12.174 19.9491H12.8466C12.9618 19.9491 13.0555 20.0415 13.0555 20.1551V21.1145C13.0555 21.352 13.1871 21.5669 13.3989 21.6753C13.4904 21.7222 13.5893 21.7453 13.6878 21.7453C13.8179 21.7453 13.9471 21.7049 14.0573 21.6255L15.674 20.4605C15.9704 20.9207 16.3231 21.3516 16.6668 21.7701V21.7701ZM19.9498 18.7611C19.9498 19.0285 19.7303 19.246 19.4606 19.246H16.4519C16.2588 19.246 16.074 19.3056 15.9176 19.4184L13.7587 20.9741V20.1552C13.7587 19.6538 13.3496 19.246 12.8467 19.246H12.1741C11.9044 19.246 11.6849 19.0284 11.6849 18.7611V12.9617C11.6849 12.6944 11.9044 12.4768 12.1741 12.4768H16.5164C16.5167 12.4768 16.5171 12.4769 16.5174 12.4769C16.518 12.4769 16.5185 12.4768 16.519 12.4768H19.4607C19.7304 12.4768 19.9499 12.6944 19.9499 12.9617V18.7611H19.9498ZM20.8625 10.1166C20.8625 10.8308 20.647 11.5115 20.2505 12.0728C20.04 11.8869 19.7634 11.7737 19.4606 11.7737H16.8307C16.84 11.5198 16.9469 11.2723 17.1289 11.0871C18.119 10.099 18.1792 9.22336 18.2275 8.51981C18.2334 8.43337 18.2394 8.35036 18.2467 8.27011L18.3229 8.21517C18.359 8.1892 18.4016 8.17547 18.4462 8.17547H20.138C20.601 8.71753 20.8576 9.4027 20.8625 10.1166V10.1166ZM21.455 7.47234H18.4462C18.2532 7.47234 18.0684 7.53192 17.9119 7.6447L17.7019 7.79606C17.7011 7.79662 17.7003 7.79719 17.6995 7.79775L15.7531 9.20044V8.38148C15.7531 7.88016 15.3439 7.4723 14.841 7.4723H14.1684C13.8987 7.4723 13.6793 7.25475 13.6793 6.98742V5.67188C13.6793 5.47772 13.5218 5.32031 13.3277 5.32031C13.1335 5.32031 12.9761 5.47772 12.9761 5.67188V6.98742C12.9761 7.41469 13.2037 7.78983 13.5444 7.99917C13.531 8.12545 13.5146 8.24859 13.4946 8.36648C13.3954 8.95111 13.0539 9.48187 12.5576 9.8227C11.6821 10.4389 10.5025 10.2833 9.67116 9.59527V6.41644C10.4255 5.42161 10.0481 3.8392 9.25528 2.91628C10.387 2.51034 11.7017 2.28155 12.9761 2.30836V4.03125C12.9761 4.22541 13.1335 4.38281 13.3276 4.38281C13.5218 4.38281 13.6792 4.22541 13.6792 4.03125V1.188C13.6792 0.920625 13.8987 0.703125 14.1684 0.703125H21.4549C21.7246 0.703125 21.9441 0.920672 21.9441 1.188V6.98742C21.9442 7.2548 21.7247 7.47234 21.455 7.47234V7.47234Z" fill="#C2C6D1"/>
<path d="M19.9831 2.33217H18.1632V1.73437C18.1632 1.54022 18.0058 1.38281 17.8116 1.38281C17.6175 1.38281 17.4601 1.54022 17.4601 1.73437V2.33217H15.6401C15.446 2.33217 15.2886 2.48958 15.2886 2.68373C15.2886 2.87789 15.446 3.0353 15.6401 3.0353H16.3691C16.5379 3.78347 16.8718 4.4715 17.3368 5.05669C16.9809 5.39639 16.5647 5.67802 16.1004 5.88492L15.6161 6.10078C15.4387 6.17981 15.359 6.38766 15.4381 6.56498C15.4964 6.69586 15.6248 6.77353 15.7594 6.77353C15.8072 6.77353 15.8558 6.76373 15.9023 6.74302L16.3866 6.52716C16.9209 6.28903 17.4008 5.96573 17.8116 5.57592C18.2225 5.96573 18.7023 6.28903 19.2366 6.52716L19.721 6.74302C19.8445 6.7942 20.0763 6.77986 20.1852 6.56498C20.2642 6.38766 20.1845 6.17981 20.0072 6.10078L19.5228 5.88492C19.0585 5.67806 18.6423 5.39639 18.2865 5.05669C18.7515 4.4715 19.0853 3.78347 19.2541 3.0353H19.9831C20.1772 3.0353 20.3346 2.87789 20.3346 2.68373C20.3346 2.48958 20.1773 2.33217 19.9831 2.33217V2.33217ZM17.8116 4.52091C17.4822 4.08089 17.2364 3.57811 17.0928 3.0353H18.5304C18.3868 3.57811 18.1411 4.08089 17.8116 4.52091Z" fill="#C2C6D1"/>
<path d="M3.04615 11.4853C3.22784 11.5539 3.43071 11.4622 3.4992 11.2805L3.80431 10.4721H5.86423L6.17253 11.2816C6.22596 11.4219 6.35946 11.5081 6.50112 11.5081C6.5427 11.5081 6.58503 11.5007 6.62618 11.485C6.80763 11.4159 6.89867 11.2128 6.82957 11.0313L5.24548 6.87203C5.24445 6.86935 5.24342 6.86668 5.24234 6.86401C5.17334 6.6954 5.01106 6.58637 4.8289 6.58618C4.82871 6.58618 4.82862 6.58618 4.82843 6.58618C4.64651 6.58618 4.48418 6.69488 4.4149 6.86317C4.41359 6.86635 4.41232 6.86959 4.41106 6.87287L2.84135 11.0324C2.77278 11.2139 2.86446 11.4168 3.04615 11.4853V11.4853ZM4.82951 7.75534L5.59643 9.76895H4.06962L4.82951 7.75534Z" fill="#C2C6D1"/>
<path d="M18.5101 13.7344H16.8746C16.6805 13.7344 16.5231 13.8918 16.5231 14.0859C16.5231 14.2801 16.6805 14.4375 16.8746 14.4375H17.3408V15.5391H15.9424C16.0241 15.3727 16.0701 15.1858 16.0701 14.9883C16.0701 14.2969 15.5076 13.7344 14.8162 13.7344H13.801C13.6069 13.7344 13.4495 13.8918 13.4495 14.0859C13.4495 14.2801 13.6069 14.4375 13.801 14.4375H14.8162C15.1199 14.4375 15.3669 14.6846 15.3669 14.9883C15.3669 15.292 15.1199 15.5391 14.8162 15.5391H13.6882C13.4941 15.5391 13.3366 15.6965 13.3366 15.8906C13.3366 16.0848 13.4941 16.2422 13.6882 16.2422H14.8162C15.1199 16.2422 15.3669 16.4893 15.3669 16.793C15.3669 17.1018 15.125 17.3438 14.8162 17.3438C14.3304 17.3438 13.7791 17.289 13.3728 16.8828C13.2355 16.7455 13.0129 16.7455 12.8757 16.8828C12.7384 17.0201 12.7384 17.2427 12.8757 17.3799C13.4668 17.9711 14.2232 18.0469 14.8162 18.0469C15.5076 18.0469 16.0701 17.4844 16.0701 16.793C16.0701 16.5955 16.0241 16.4085 15.9424 16.2422H17.3408V17.6953C17.3408 17.8895 17.4982 18.0469 17.6924 18.0469C17.8865 18.0469 18.0439 17.8895 18.0439 17.6953V14.4375H18.5101C18.7043 14.4375 18.8617 14.2801 18.8617 14.0859C18.8617 13.8918 18.7043 13.7344 18.5101 13.7344V13.7344Z" fill="#C2C6D1"/>
</svg>
