<svg width="22" height="20" viewBox="0 0 22 20" fill="none" xmlns="http://www.w3.org/2000/svg">
<path d="M5.01654 6.03769V5.60156C5.16727 5.55542 5.307 5.48019 5.42747 5.38033C5.539 5.28923 5.62903 5.17559 5.69135 5.04723C5.75368 4.91887 5.78682 4.77884 5.78851 4.63676V4.58133C5.78576 4.4135 5.73977 4.24905 5.65479 4.10319C5.56981 3.95733 5.44858 3.83478 5.30231 3.74686L4.37595 3.16526C4.33868 3.14547 4.30711 3.11682 4.28415 3.08196C4.26119 3.0471 4.24758 3.00715 4.24457 2.96579V2.91036C4.24623 2.87721 4.25524 2.84481 4.27097 2.81539C4.28671 2.78598 4.3088 2.76027 4.33571 2.74003C4.41895 2.67444 4.52313 2.63955 4.63003 2.64145H4.63128C4.73818 2.63952 4.84236 2.67442 4.92559 2.74003C4.95252 2.76026 4.97462 2.78597 4.99037 2.81538C5.00611 2.8448 5.01513 2.8772 5.01678 2.91036C5.01678 3.01044 5.05745 3.10642 5.12983 3.17719C5.20222 3.24796 5.3004 3.28772 5.40277 3.28772C5.50514 3.28772 5.60331 3.24796 5.6757 3.17719C5.74808 3.10642 5.78875 3.01044 5.78875 2.91036C5.78707 2.76828 5.75392 2.62825 5.6916 2.49989C5.62927 2.37153 5.53924 2.25789 5.42771 2.16679C5.30724 2.06693 5.16751 1.9917 5.01678 1.94556V1.50943C5.01678 1.40935 4.97612 1.31337 4.90373 1.2426C4.83134 1.17184 4.73317 1.13208 4.6308 1.13208C4.52843 1.13208 4.43025 1.17184 4.35787 1.2426C4.28548 1.31337 4.24481 1.40935 4.24481 1.50943V1.94561C4.09409 1.99174 3.95436 2.06695 3.83389 2.16679C3.7223 2.25786 3.63222 2.37149 3.56986 2.49985C3.50749 2.62821 3.47431 2.76826 3.4726 2.91036V2.96579C3.47535 3.13362 3.52134 3.29808 3.60632 3.44393C3.6913 3.58979 3.81253 3.71234 3.9588 3.80026L4.88516 4.38186C4.92243 4.40165 4.954 4.4303 4.97696 4.46516C4.99992 4.50002 5.01353 4.53997 5.01654 4.58133V4.63676C5.01489 4.66991 5.00588 4.70231 4.99014 4.73173C4.9744 4.76114 4.95231 4.78685 4.9254 4.80709C4.84201 4.87276 4.73762 4.90765 4.63056 4.90562H4.62988C4.52299 4.90757 4.4188 4.87269 4.33557 4.80709C4.30864 4.78686 4.28654 4.76115 4.27079 4.73174C4.25505 4.70232 4.24603 4.66992 4.24438 4.63676C4.24438 4.53668 4.20371 4.4407 4.13133 4.36993C4.05894 4.29916 3.96077 4.2594 3.8584 4.2594C3.75603 4.2594 3.65785 4.29916 3.58546 4.36993C3.51308 4.4407 3.47241 4.53668 3.47241 4.63676C3.47409 4.77884 3.50723 4.91888 3.56955 5.04724C3.63188 5.1756 3.72191 5.28924 3.83345 5.38033C3.95392 5.48019 4.09365 5.55542 4.24438 5.60156V6.03769C4.24438 6.13777 4.28505 6.23375 4.35743 6.30452C4.42982 6.37528 4.52799 6.41504 4.63036 6.41504C4.73273 6.41504 4.83091 6.37528 4.9033 6.30452C4.97568 6.23375 5.01635 6.13777 5.01635 6.03769H5.01654Z" fill="#C2C6D1"/>
<path d="M5.12959 16.7142L4.74916 17.0861C4.70176 17.1322 4.63953 17.1609 4.57298 17.1674C4.50642 17.1738 4.43964 17.1576 4.38392 17.1214L4.1475 16.9673C4.05856 16.9097 3.96116 16.8656 3.85864 16.8366V16.6036H4.24463C4.347 16.6036 4.44517 16.5639 4.51756 16.4931C4.58995 16.4223 4.63061 16.3264 4.63061 16.2263C4.63061 16.1262 4.58995 16.0302 4.51756 15.9595C4.44517 15.8887 4.347 15.8489 4.24463 15.8489H3.85864V15.0942C3.85864 14.9941 3.89931 14.8982 3.9717 14.8274C4.04408 14.7566 4.14226 14.7169 4.24463 14.7169C4.347 14.7169 4.44517 14.7566 4.51756 14.8274C4.58995 14.8982 4.63061 14.9941 4.63061 15.0942C4.63061 15.1943 4.67128 15.2903 4.74366 15.3611C4.81605 15.4318 4.91423 15.4716 5.0166 15.4716C5.11896 15.4716 5.21714 15.4318 5.28953 15.3611C5.36191 15.2903 5.40258 15.1943 5.40258 15.0942C5.40258 14.794 5.28058 14.506 5.06342 14.2937C4.84626 14.0814 4.55174 13.9622 4.24463 13.9622C3.93752 13.9622 3.64299 14.0814 3.42583 14.2937C3.20867 14.506 3.08668 14.794 3.08668 15.0942V15.8489H2.70069C2.59832 15.8489 2.50015 15.8887 2.42776 15.9595C2.35537 16.0302 2.31471 16.1262 2.31471 16.2263C2.31471 16.3264 2.35537 16.4223 2.42776 16.4931C2.50015 16.5639 2.59832 16.6036 2.70069 16.6036H3.08668V16.9025C2.98362 16.952 2.88955 17.0177 2.80819 17.0969L2.42775 17.4689C2.35536 17.5396 2.3147 17.6356 2.3147 17.7357C2.3147 17.8358 2.35536 17.9318 2.42775 18.0025C2.50014 18.0733 2.59832 18.1131 2.70069 18.1131C2.80306 18.1131 2.90124 18.0733 2.97363 18.0025L3.35407 17.6306C3.40144 17.5844 3.46368 17.5557 3.53024 17.5493C3.5968 17.5428 3.66359 17.5591 3.7193 17.5953L3.95572 17.7494C4.16006 17.8819 4.40496 17.9414 4.64899 17.9178C4.89303 17.8942 5.12124 17.7889 5.29503 17.6198L5.67547 17.2478C5.74786 17.1771 5.78852 17.0811 5.78852 16.981C5.78852 16.8809 5.74786 16.7849 5.67547 16.7142C5.60308 16.6434 5.5049 16.6036 5.40253 16.6036C5.30016 16.6036 5.20198 16.6434 5.12959 16.7142V16.7142Z" fill="#C2C6D1"/>
<path d="M16.653 15.2357H16.2585C16.1562 15.2357 16.058 15.2755 15.9856 15.3463C15.9132 15.417 15.8726 15.513 15.8726 15.6131C15.8726 15.7132 15.9132 15.8091 15.9856 15.8799C16.058 15.9507 16.1562 15.9904 16.2585 15.9904H16.548V16.4621H16.2585C16.1562 16.4621 16.058 16.5019 15.9856 16.5727C15.9132 16.6434 15.8726 16.7394 15.8726 16.8395C15.8726 16.9396 15.9132 17.0355 15.9856 17.1063C16.058 17.1771 16.1562 17.2168 16.2585 17.2168H16.6532C16.7842 17.5882 17.0304 17.9104 17.3574 18.1387C17.6844 18.367 18.0761 18.4899 18.478 18.4904C18.5803 18.4904 18.6785 18.4507 18.7509 18.3799C18.8233 18.3091 18.8639 18.2131 18.8639 18.1131C18.8639 18.013 18.8233 17.917 18.7509 17.8462C18.6785 17.7755 18.5803 17.7357 18.478 17.7357C18.2844 17.7356 18.0939 17.688 17.924 17.5974C17.7541 17.5067 17.6102 17.3759 17.5053 17.2168H17.9955C18.0978 17.2168 18.196 17.1771 18.2684 17.1063C18.3408 17.0355 18.3815 16.9396 18.3815 16.8395C18.3815 16.7394 18.3408 16.6434 18.2684 16.5727C18.196 16.5019 18.0978 16.4621 17.9955 16.4621H17.32V15.9904H17.9955C18.0978 15.9904 18.196 15.9507 18.2684 15.8799C18.3408 15.8091 18.3815 15.7132 18.3815 15.6131C18.3815 15.513 18.3408 15.417 18.2684 15.3463C18.196 15.2755 18.0978 15.2357 17.9955 15.2357H17.5051C17.6099 15.0766 17.7539 14.9458 17.9239 14.8551C18.0939 14.7645 18.2843 14.7169 18.478 14.7169C18.5803 14.7169 18.6785 14.6771 18.7509 14.6063C18.8233 14.5356 18.8639 14.4396 18.8639 14.3395C18.8639 14.2394 18.8233 14.1435 18.7509 14.0727C18.6785 14.0019 18.5803 13.9622 18.478 13.9622C18.0761 13.9626 17.6844 14.0855 17.3573 14.3138C17.0302 14.5421 16.784 14.8643 16.653 15.2357V15.2357Z" fill="#C2C6D1"/>
<path d="M19.0249 1.99749L17.7541 3.24007L16.4829 1.99749C16.4105 1.92672 16.3123 1.88696 16.21 1.88696C16.1076 1.88696 16.0094 1.92672 15.937 1.99749C15.8646 2.06826 15.824 2.16424 15.824 2.26433C15.824 2.36441 15.8646 2.46039 15.937 2.53116L16.822 3.39639H16.5962C16.4938 3.39639 16.3956 3.43615 16.3233 3.50691C16.2509 3.57768 16.2102 3.67366 16.2102 3.77374C16.2102 3.87382 16.2509 3.9698 16.3233 4.04057C16.3956 4.11134 16.4938 4.1511 16.5962 4.1511H17.3682V4.52845H16.5962C16.4938 4.52845 16.3956 4.56821 16.3233 4.63898C16.2509 4.70974 16.2102 4.80572 16.2102 4.90581C16.2102 5.00589 16.2509 5.10187 16.3233 5.17264C16.3956 5.2434 16.4938 5.28316 16.5962 5.28316H17.3682V5.66051C17.3682 5.76059 17.4088 5.85658 17.4812 5.92734C17.5536 5.99811 17.6518 6.03787 17.7541 6.03787C17.8565 6.03787 17.9547 5.99811 18.0271 5.92734C18.0995 5.85658 18.1401 5.76059 18.1401 5.66051V5.28316H18.9121C19.0145 5.28316 19.1126 5.2434 19.185 5.17264C19.2574 5.10187 19.2981 5.00589 19.2981 4.90581C19.2981 4.80572 19.2574 4.70974 19.185 4.63898C19.1126 4.56821 19.0145 4.52845 18.9121 4.52845H18.1401V4.1511H18.9121C19.0145 4.1511 19.1126 4.11134 19.185 4.04057C19.2574 3.9698 19.2981 3.87382 19.2981 3.77374C19.2981 3.67366 19.2574 3.57768 19.185 3.50691C19.1126 3.43615 19.0145 3.39639 18.9121 3.39639H18.686L19.571 2.53116C19.6434 2.46039 19.6841 2.36441 19.6841 2.26433C19.6841 2.16424 19.6434 2.06826 19.571 1.99749C19.4986 1.92672 19.4005 1.88696 19.2981 1.88696C19.1957 1.88696 19.0975 1.92672 19.0251 1.99749H19.0249Z" fill="#C2C6D1"/>
<path d="M21.5928 10.9434C21.5976 10.9434 21.6024 10.9434 21.6072 10.9434C21.7071 10.9433 21.8031 10.9054 21.875 10.8375C21.9469 10.7697 21.9891 10.6773 21.9927 10.5797C21.9975 10.4505 22 10.319 22 10.1886C22.0036 8.66826 21.6685 7.16534 21.0179 5.7844C21.3223 5.31245 21.5158 4.78038 21.5845 4.22651C21.6532 3.67264 21.5954 3.11078 21.4152 2.58139C21.235 2.052 20.937 1.56828 20.5425 1.16507C20.1481 0.761858 19.6671 0.4492 19.1342 0.249621C18.6013 0.0500428 18.0297 -0.0314869 17.4607 0.0109065C16.8916 0.0532998 16.3393 0.218561 15.8435 0.494782C15.3476 0.771004 14.9207 1.15131 14.5933 1.60829C14.2659 2.06528 14.0463 2.58757 13.9502 3.13754C12.1739 2.47608 10.2109 2.47623 8.43466 3.13796C8.39111 2.88813 8.32171 2.64328 8.22753 2.40717C9.17594 2.06136 10.1802 1.88511 11.1925 1.88684C11.2948 1.88684 11.393 1.84709 11.4654 1.77632C11.5378 1.70555 11.5785 1.60957 11.5785 1.50949C11.5785 1.40941 11.5378 1.31343 11.4654 1.24266C11.393 1.17189 11.2948 1.13213 11.1925 1.13213C10.058 1.13024 8.93288 1.33334 7.87387 1.73118C7.5264 1.20366 7.04983 0.769199 6.48731 0.467133C5.9248 0.165068 5.2941 0.00494025 4.65232 0.00124873C4.01055 -0.0024428 3.37796 0.150418 2.81185 0.445992C2.24574 0.741565 1.76397 1.17052 1.41017 1.69401C1.05638 2.21749 0.841722 2.81899 0.785646 3.44403C0.729571 4.06907 0.833845 4.69791 1.08903 5.27362C1.34421 5.84933 1.74224 6.35372 2.24708 6.74112C2.75192 7.12853 3.34763 7.38672 3.98026 7.4923C3.36082 9.08225 3.30677 10.8298 3.82683 12.4534C3.03616 12.459 2.26655 12.7032 1.6233 13.1528C1.31315 12.194 1.15583 11.1942 1.15688 10.1886C1.15688 10.0886 1.11622 9.99258 1.04383 9.92181C0.971445 9.85104 0.873269 9.81129 0.770899 9.81129C0.66853 9.81129 0.570353 9.85104 0.497967 9.92181C0.425581 9.99258 0.384915 10.0886 0.384915 10.1886C0.383569 11.3839 0.59022 12.5706 0.996025 13.698C0.595589 14.1312 0.303449 14.6493 0.142601 15.2115C-0.0182468 15.7738 -0.0434126 16.3649 0.0690847 16.9382C0.181582 17.5116 0.428672 18.0516 0.790904 18.5158C1.15314 18.98 1.62062 19.3556 2.15657 19.6131C2.69251 19.8707 3.28229 20.0031 3.87946 19.9999C4.47664 19.9968 5.06492 19.8582 5.59799 19.595C6.13107 19.3319 6.59439 18.9513 6.95149 18.4834C7.30859 18.0154 7.54971 17.4728 7.65589 16.8983C8.6911 17.4191 9.83327 17.7045 10.9971 17.7333C12.161 17.7621 13.3165 17.5334 14.3773 17.0645C14.4349 17.3118 14.5181 17.5527 14.6256 17.7836C13.5447 18.2525 12.3749 18.4934 11.1925 18.4904C11.0901 18.4904 10.9919 18.5302 10.9195 18.601C10.8471 18.6717 10.8065 18.7677 10.8065 18.8678C10.8065 18.9679 10.8471 19.0639 10.9195 19.1346C10.9919 19.2054 11.0901 19.2451 11.1925 19.2451C12.5116 19.2484 13.816 18.9736 15.0167 18.4394C15.394 18.9484 15.8955 19.3572 16.4755 19.6285C17.0556 19.8999 17.6958 20.0252 18.338 19.9932C18.9802 19.9611 19.604 19.7726 20.1528 19.4449C20.7015 19.1172 21.1578 18.6606 21.4801 18.1166C21.8025 17.5726 21.9806 16.9585 21.9985 16.3301C22.0163 15.7017 21.8732 15.0789 21.5822 14.5183C21.2912 13.9577 20.8615 13.4771 20.3321 13.1201C19.8028 12.7632 19.1906 12.5412 18.5512 12.4744C19.0785 10.8451 19.0268 9.08942 18.4044 7.49254C19.1876 7.36156 19.9103 6.99705 20.4734 6.44892C20.9748 7.63462 21.2313 8.9056 21.2281 10.1886C21.2281 10.3098 21.2258 10.4322 21.2213 10.5523C21.2194 10.6018 21.2275 10.6512 21.2452 10.6977C21.2628 10.7441 21.2897 10.7867 21.3242 10.823C21.3587 10.8593 21.4001 10.8887 21.4462 10.9093C21.4923 10.93 21.5421 10.9415 21.5928 10.9434ZM17.593 7.54339C17.9056 8.26304 18.0871 9.03054 18.1295 9.81129H13.8909C13.8785 8.92741 13.8092 8.04518 13.6835 7.16981H16.0729C16.5478 7.39529 17.0653 7.5224 17.5929 7.54315L17.593 7.54339ZM16.4587 12.8301H13.7345C13.8273 12.0786 13.8795 11.3229 13.8909 10.566H18.129C18.0933 11.217 17.9613 11.8594 17.7371 12.4734C17.293 12.5185 16.8603 12.6392 16.4587 12.8301V12.8301ZM11.1925 16.981C10.8654 16.981 10.3602 16.4986 9.92292 15.1448C9.76154 14.6335 9.63479 14.1124 9.54349 13.5848H12.841C12.7497 14.1124 12.623 14.6335 12.4617 15.1448C12.0244 16.4986 11.5192 16.981 11.1925 16.981ZM6.61175 13.5848H8.76077C8.85997 14.1895 9.0023 14.7867 9.1867 15.372C9.3837 15.9818 9.61095 16.4778 9.86367 16.8554C9.10745 16.7121 8.38103 16.4463 7.71441 16.069C7.67508 15.1357 7.28193 14.2502 6.61151 13.5848H6.61175ZM6.31199 7.16981H8.70137C8.57568 8.04518 8.50639 8.92741 8.49391 9.81129H4.25508C4.29747 9.0305 4.47892 8.26294 4.79126 7.54315C5.31899 7.52245 5.83664 7.39534 6.31175 7.16981H6.31199ZM8.48648 3.93107C8.93006 3.74682 9.39227 3.60881 9.86545 3.51933C9.61205 3.89729 9.38423 4.39408 9.1868 5.00516C9.03972 5.46796 8.92033 5.93873 8.82923 6.4151H7.38348C8.05382 5.74969 8.44692 4.86422 8.48624 3.93107H8.48648ZM12.4621 5.23252C12.5855 5.62114 12.6877 6.01589 12.7683 6.4151H9.61616C9.69689 6.01589 9.7992 5.62114 9.92268 5.23252C10.36 3.87866 10.8652 3.39626 11.1925 3.39626C11.5197 3.39626 12.0244 3.87866 12.4617 5.23252H12.4621ZM12.904 7.16981C13.0347 8.04475 13.1064 8.92715 13.1188 9.81129H9.26568C9.27799 8.92715 9.34971 8.04475 9.48039 7.16981H12.904ZM4.67161 12.5377C4.43281 11.9045 4.29252 11.2399 4.25542 10.566H8.49352C8.50488 11.3229 8.55704 12.0786 8.6498 12.8301H5.54745C5.54514 12.8301 5.54296 12.8304 5.5407 12.8305C5.26407 12.6991 4.97228 12.6008 4.67161 12.5377V12.5377ZM9.42707 12.8301C9.33089 12.0789 9.27701 11.323 9.26568 10.566H13.1188C13.1074 11.323 13.0535 12.0789 12.9574 12.8301H9.42707ZM13.5552 6.4151C13.4642 5.93877 13.3449 5.46803 13.1979 5.00525C13.0006 4.39441 12.7729 3.89781 12.5196 3.51994C12.9926 3.60934 13.4547 3.74714 13.8982 3.93107C13.9375 4.86422 14.3306 5.74969 15.001 6.4151H13.5552ZM1.54287 3.77362C1.54287 3.17655 1.72397 2.59289 2.06327 2.09644C2.40257 1.6 2.88483 1.21306 3.44906 0.984575C4.0133 0.756087 4.63416 0.696304 5.23315 0.812786C5.83214 0.929269 6.38235 1.21678 6.81419 1.63898C7.24604 2.06117 7.54013 2.59907 7.65928 3.18467C7.77842 3.77027 7.71727 4.37725 7.48356 4.92887C7.24985 5.48049 6.85407 5.95197 6.34627 6.28369C5.83847 6.6154 5.24146 6.79245 4.63074 6.79245C3.81207 6.79155 3.02719 6.47321 2.4483 5.90726C1.86941 5.34132 1.54379 4.57399 1.54287 3.77362V3.77362ZM3.85877 19.2451C3.24805 19.2451 2.65104 19.0681 2.14324 18.7364C1.63544 18.4047 1.23966 17.9332 1.00595 17.3816C0.772236 16.83 0.711086 16.223 0.830232 15.6374C0.949378 15.0518 1.24347 14.5139 1.67532 14.0917C2.10716 13.6695 2.65737 13.382 3.25636 13.2655C3.85535 13.149 4.47621 13.2088 5.04045 13.4373C5.60468 13.6658 6.08694 14.0527 6.42624 14.5491C6.76554 15.0456 6.94664 15.6292 6.94664 16.2263C6.94572 17.0267 6.6201 17.794 6.04121 18.36C5.46232 18.9259 4.67744 19.2442 3.85877 19.2451V19.2451ZM12.5193 16.8578C12.7727 16.4799 13.0005 15.9832 13.1979 15.372C13.3823 14.7867 13.5246 14.1895 13.6238 13.5848H15.387C14.6773 14.2889 14.2798 15.2379 14.2803 16.2263C14.2803 16.2422 14.2814 16.2578 14.2815 16.2735C13.7241 16.5457 13.1312 16.7423 12.5193 16.8578V16.8578ZM21.2281 16.2263C21.2281 16.8234 21.047 17.407 20.7077 17.9035C20.3684 18.3999 19.8861 18.7869 19.3219 19.0154C18.7576 19.2438 18.1368 19.3036 17.5378 19.1871C16.9388 19.0707 16.3886 18.7831 15.9567 18.361C15.5249 17.9388 15.2308 17.4009 15.1116 16.8153C14.9925 16.2297 15.0536 15.6227 15.2874 15.0711C15.5211 14.5194 15.9169 14.048 16.4246 13.7162C16.9324 13.3845 17.5295 13.2075 18.1402 13.2075C18.9588 13.2084 19.7437 13.5267 20.3226 14.0927C20.9015 14.6586 21.2271 15.4259 21.2281 16.2263ZM17.7542 6.79245C17.1435 6.79245 16.5465 6.6154 16.0387 6.28369C15.5309 5.95197 15.1351 5.48049 14.9014 4.92887C14.6677 4.37725 14.6065 3.77027 14.7257 3.18467C14.8448 2.59907 15.1389 2.06117 15.5707 1.63898C16.0026 1.21678 16.5528 0.929269 17.1518 0.812786C17.7508 0.696304 18.3716 0.756087 18.9359 0.984575C19.5001 1.21306 19.9824 1.6 20.3217 2.09644C20.661 2.59289 20.8421 3.17655 20.8421 3.77362C20.8411 4.57399 20.5155 5.34132 19.9366 5.90726C19.3577 6.47321 18.5729 6.79155 17.7542 6.79245V6.79245Z" fill="#C2C6D1"/>
</svg>
