<svg width="22" height="16" viewBox="0 0 22 16" fill="none" xmlns="http://www.w3.org/2000/svg">
<path d="M21.8927 8.59975L17.3403 4.37901C17.2384 4.28391 17.1172 4.20851 16.9836 4.1572C16.85 4.10588 16.7068 4.07967 16.5623 4.08008H10.2667V4.7601H12.1V9.86026H12.8333V4.7601H16.5626C16.6109 4.76004 16.6586 4.7688 16.7032 4.78588C16.7478 4.80295 16.7883 4.82802 16.8224 4.85963L17.4484 5.44013H15.7667C15.6704 5.44013 15.575 5.45771 15.486 5.49189C15.3971 5.52606 15.3162 5.57615 15.2481 5.6393C15.18 5.70245 15.126 5.77741 15.0892 5.85991C15.0523 5.94242 15.0333 6.03085 15.0333 6.12015V9.18024C15.0333 9.26955 15.0523 9.35797 15.0892 9.44048C15.126 9.52298 15.18 9.59794 15.2481 9.66109C15.3162 9.72424 15.3971 9.77433 15.486 9.8085C15.575 9.84268 15.6704 9.86026 15.7667 9.86026H21.2667V12.5804C21.2667 12.6705 21.228 12.757 21.1593 12.8208C21.0905 12.8845 20.9972 12.9204 20.9 12.9204H20.1373C20.0497 12.3542 19.7449 11.8364 19.2789 11.4618C18.8128 11.0872 18.2168 10.881 17.6 10.881C16.9832 10.881 16.3872 11.0872 15.9211 11.4618C15.4551 11.8364 15.1503 12.3542 15.0627 12.9204H9.87059C9.78301 12.3542 9.47825 11.8364 9.0122 11.4618C8.54616 11.0872 7.95009 10.881 7.33333 10.881C6.71658 10.881 6.12051 11.0872 5.65446 11.4618C5.18842 11.8364 4.88365 12.3542 4.79608 12.9204H4.03333C3.93609 12.9204 3.84282 12.8845 3.77406 12.8208C3.7053 12.757 3.66667 12.6705 3.66667 12.5804V9.52025H2.93333V12.5804C2.93333 12.7143 2.96179 12.8469 3.01707 12.9707C3.07235 13.0945 3.15337 13.2069 3.25552 13.3016C3.35766 13.3963 3.47892 13.4715 3.61238 13.5227C3.74584 13.574 3.88888 13.6004 4.03333 13.6004H4.79608C4.87614 14.1174 5.13794 14.5955 5.54087 14.9604H0V15.6404H17.6C18.2165 15.6393 18.8121 15.4326 19.2779 15.0581C19.7437 14.6836 20.0487 14.1662 20.1373 13.6004H20.9C21.0445 13.6004 21.1875 13.574 21.321 13.5227C21.4544 13.4715 21.5757 13.3963 21.6778 13.3016C21.78 13.2069 21.861 13.0945 21.9163 12.9707C21.9715 12.8469 22 12.7143 22 12.5804V8.84023C22 8.79558 21.9905 8.75135 21.9721 8.71009C21.9537 8.66883 21.9267 8.63133 21.8927 8.59975V8.59975ZM5.5 13.2604C5.5 12.9241 5.60752 12.5954 5.80897 12.3159C6.01042 12.0363 6.29675 11.8184 6.63175 11.6897C6.96674 11.5611 7.33537 11.5274 7.691 11.593C8.04663 11.6586 8.3733 11.8205 8.6297 12.0583C8.88609 12.296 9.0607 12.5989 9.13144 12.9287C9.20218 13.2585 9.16587 13.6003 9.02711 13.911C8.88835 14.2216 8.65337 14.4871 8.35188 14.6739C8.05039 14.8607 7.69593 14.9604 7.33333 14.9604C6.84729 14.9599 6.38133 14.7806 6.03764 14.4619C5.69396 14.1432 5.50061 13.7111 5.5 13.2604V13.2604ZM9.1258 14.9604C9.52873 14.5955 9.79053 14.1174 9.87059 13.6004H15.0627C15.1428 14.1174 15.4046 14.5955 15.8075 14.9604H9.1258ZM17.6 14.9604C17.2374 14.9604 16.8829 14.8607 16.5815 14.6739C16.28 14.4871 16.045 14.2216 15.9062 13.911C15.7675 13.6003 15.7312 13.2585 15.8019 12.9287C15.8726 12.5989 16.0472 12.296 16.3036 12.0583C16.56 11.8205 16.8867 11.6586 17.2423 11.593C17.598 11.5274 17.9666 11.5611 18.3016 11.6897C18.6366 11.8184 18.9229 12.0363 19.1244 12.3159C19.3258 12.5954 19.4333 12.9241 19.4333 13.2604C19.4327 13.7111 19.2394 14.1432 18.8957 14.4619C18.552 14.7806 18.086 14.9599 17.6 14.9604V14.9604ZM15.7667 9.18024V6.12015H18.1817L21.2667 8.98084V9.18024H15.7667Z" fill="#C2C6D1"/>
<path d="M6.96667 12.9204H7.7V13.6004H6.96667V12.9204ZM17.2333 12.9204H17.9667V13.6004H17.2333V12.9204ZM0 11.9004H1.83333V12.5804H0V11.9004ZM0.733333 10.5403H1.83333V11.2204H0.733333V10.5403ZM1.1 9.18029H1.83333V9.86031H1.1V9.18029ZM4.76667 8.84028C5.70942 8.84028 6.63101 8.58104 7.41488 8.09535C8.19876 7.60966 8.80972 6.91933 9.17049 6.11166C9.53127 5.30398 9.62567 4.41524 9.44174 3.55781C9.25782 2.70039 8.80384 1.9128 8.13721 1.29463C7.47058 0.676463 6.62124 0.255486 5.6966 0.0849337C4.77195 -0.0856184 3.81354 0.00191526 2.94254 0.336465C2.07155 0.671015 1.3271 1.23756 0.803328 1.96444C0.27956 2.69133 0 3.54592 0 4.42014C0.0014153 5.59203 0.504071 6.71555 1.39769 7.5442C2.2913 8.37286 3.5029 8.83897 4.76667 8.84028V8.84028ZM4.76667 0.680023C5.56439 0.680023 6.34419 0.899378 7.00747 1.31035C7.67075 1.72132 8.18771 2.30544 8.49298 2.98886C8.79826 3.67228 8.87813 4.42429 8.7225 5.1498C8.56687 5.87531 8.18274 6.54174 7.61866 7.0648C7.05459 7.58787 6.33592 7.94408 5.55353 8.08839C4.77114 8.23271 3.96017 8.15864 3.22318 7.87556C2.48618 7.59248 1.85626 7.1131 1.41307 6.49804C0.969884 5.88298 0.733333 5.15987 0.733333 4.42014C0.734546 3.42855 1.15988 2.47789 1.91601 1.77672C2.67214 1.07556 3.69733 0.681148 4.76667 0.680023V0.680023Z" fill="#C2C6D1"/>
<path d="M4.76666 7.48054C4.81482 7.48056 4.86251 7.47178 4.90701 7.4547C4.95151 7.43763 4.99194 7.41259 5.026 7.38102C5.26205 7.16178 7.33333 5.19928 7.33333 3.74043C7.33333 3.10919 7.06291 2.50381 6.58157 2.05746C6.10023 1.61111 5.44739 1.36035 4.76666 1.36035C4.08594 1.36035 3.4331 1.61111 2.95176 2.05746C2.47041 2.50381 2.2 3.10919 2.2 3.74043C2.2 5.19893 4.27128 7.16178 4.50732 7.38102C4.54139 7.41259 4.58182 7.43763 4.62632 7.4547C4.67082 7.47178 4.71851 7.48056 4.76666 7.48054V7.48054ZM4.76666 2.04037C5.25271 2.04094 5.71867 2.22023 6.06236 2.53893C6.40604 2.85763 6.59939 3.28972 6.6 3.74043C6.6 4.61277 5.44614 5.96112 4.76666 6.64787C4.08718 5.96077 2.93333 4.61277 2.93333 3.74043C2.93394 3.28972 3.12729 2.85763 3.47097 2.53893C3.81466 2.22023 4.28062 2.04094 4.76666 2.04037V2.04037Z" fill="#C2C6D1"/>
<path d="M5.86666 3.74074C5.86666 3.53899 5.80215 3.34178 5.68128 3.17404C5.56041 3.00629 5.38861 2.87555 5.18762 2.79835C4.98662 2.72115 4.76544 2.70095 4.55207 2.7403C4.33869 2.77966 4.14269 2.87681 3.98885 3.01946C3.83501 3.16212 3.73024 3.34387 3.6878 3.54174C3.64536 3.7396 3.66714 3.9447 3.7504 4.13109C3.83365 4.31747 3.97464 4.47678 4.15554 4.58886C4.33643 4.70094 4.54911 4.76077 4.76666 4.76077C5.0584 4.76077 5.33819 4.6533 5.54448 4.46201C5.75077 4.27071 5.86666 4.01126 5.86666 3.74074V3.74074ZM4.4 3.74074C4.4 3.67349 4.4215 3.60775 4.46179 3.55184C4.50208 3.49592 4.55935 3.45234 4.62635 3.42661C4.69335 3.40087 4.76707 3.39414 4.8382 3.40726C4.90932 3.42038 4.97466 3.45276 5.02594 3.50031C5.07722 3.54786 5.11214 3.60845 5.12629 3.6744C5.14043 3.74036 5.13317 3.80872 5.10542 3.87085C5.07767 3.93298 5.03067 3.98608 4.97037 4.02344C4.91008 4.06081 4.83918 4.08075 4.76666 4.08075C4.66942 4.08075 4.57616 4.04492 4.50739 3.98116C4.43863 3.9174 4.4 3.83091 4.4 3.74074V3.74074ZM13.9333 10.541H15.4V11.221H13.9333V10.541Z" fill="#C2C6D1"/>
</svg>
